<svg height="496pt" viewBox="0 0 496 496" width="496pt" xmlns="http://www.w3.org/2000/svg"><g fill="#f0bc5e"><path d="m336 488-16-80 16-24-32-24-32 24 16 24-16 80zm0 0"/><path d="m397.761719 65.808594-1.90625-3.824219c-19.0625-38.128906-57.390625-61.816406-100.023438-61.816406-61.664062 0-111.832031 50.167969-111.832031 111.832031v32h240v-38.527344c0-17.425781-10.414062-32.96875-26.238281-39.664062zm0 0"/><path d="m120 144-48-32h-72v-112h144v112h-24zm0 0"/></g><path d="m452.152344 335.832031-100.152344-22.246093v-15.929688c15.230469-9.960938 27.160156-24.503906 33.886719-41.664062h22.113281c17.648438 0 32-14.351563 32-32v-56c0-17.648438-14.351562-32-32-32h-16v-24h-16v18.878906c-5.960938 3.050781-12.472656 4.761718-19.183594 5.007812 3.6875-3.359375 7.007813-7.183594 9.839844-11.445312l-13.3125-8.875c-8.222656 12.335937-21.800781 19.808594-36.542969 20.335937 3.695313-3.367187 7.015625-7.199219 9.855469-11.460937l-13.3125-8.875c-8.222656 12.335937-21.800781 19.808594-36.542969 20.335937 3.695313-3.367187 7.015625-7.199219 9.855469-11.460937l-13.3125-8.875c-8.527344 12.800781-22.808594 20.441406-38.183594 20.441406h-3.160156v-24h-16v24h-16c-17.648438 0-32 14.351562-32 32v56c0 17.648438 14.351562 32 32 32h22.113281c6.726563 17.160156 18.65625 31.703125 33.886719 41.664062v15.929688l-100.152344 22.246094c-25.816406 5.734375-43.847656 28.222656-43.847656 54.664062v105.496094h384v-105.496094c0-26.441406-18.03125-48.929687-43.847656-54.671875zm-93.273438-4.328125-11.886718 47.542969-30.441407-20.285156 30-30zm49.121094-179.503906c8.824219 0 16 7.175781 16 16v56c0 8.824219-7.175781 16-16 16h-17.527344c.960938-5.199219 1.527344-10.527344 1.527344-16v-72zm-208 88c-8.824219 0-16-7.175781-16-16v-56c0-8.824219 7.175781-16 16-16h16v72c0 5.472656.566406 10.800781 1.527344 16zm32-16v-72h3.160156c10.230469 0 20.085938-2.527344 28.839844-7.136719v7.136719h11.160156c10.230469 0 20.085938-2.527344 28.839844-7.136719v7.136719h11.160156c10.230469 0 20.085938-2.527344 28.839844-7.136719v7.136719h11.160156c7.167969 0 14.175782-1.382812 20.839844-3.777344v75.777344c0 5.503906-.679688 10.847656-1.855469 16h-39.625c-3.3125-9.289062-12.113281-16-22.527343-16h-16c-13.230469 0-24 10.769531-24 24s10.769531 24 24 24h16c10.414062 0 19.214843-6.710938 22.527343-16h33.878907c-11.804688 23.664062-36.207032 40-64.398438 40-39.703125 0-72-32.296875-72-72zm88 24c0 4.40625-3.585938 8-8 8h-16c-4.414062 0-8-3.59375-8-8s3.585938-8 8-8h16c4.414062 0 8 3.59375 8 8zm-16 64c11.296875 0 22.0625-2.214844 32-6.113281v10.800781l-32 32-32-32v-10.800781c9.9375 3.898437 20.703125 6.113281 32 6.113281zm-42.550781 16.761719 30 30-30.441407 20.285156-11.886718-47.542969zm218.550781 151.238281h-48v-88h-16v88h-224v-88h-16v88h-48v-89.496094c0-18.886718 12.878906-34.953125 31.320312-39.046875l74.183594-16.488281 17.488282 69.984375 53.007812-35.335937 53.007812 35.34375 17.488282-69.984376 74.183594 16.488282c18.441406 4.085937 31.320312 20.152344 31.320312 39.039062zm0 0"/><path d="m360 176c0 4.417969-3.582031 8-8 8s-8-3.582031-8-8 3.582031-8 8-8 8 3.582031 8 8zm0 0"/><path d="m264 176c0 4.417969-3.582031 8-8 8s-8-3.582031-8-8 3.582031-8 8-8 8 3.582031 8 8zm0 0"/><path d="m32 32h80v16h-80zm0 0"/><path d="m32 64h80v16h-80zm0 0"/><path d="m168 296h-129.054688l9.054688-13.574219v-130.425781c0-13.230469-10.769531-24-24-24s-24 10.769531-24 24v130.425781l19.71875 29.574219h148.28125zm-144-152c4.414062 0 8 3.59375 8 8v16h-16v-16c0-4.40625 3.585938-8 8-8zm0 145.574219-8-12v-93.574219h16v93.574219zm0 0"/><path d="m152 264h16v16h-16zm0 0"/><path d="m64 264h72v16h-72zm0 0"/><path d="m64 232h72v16h-72zm0 0"/><path d="m120 200h16v16h-16zm0 0"/><path d="m64 200h40v16h-40zm0 0"/></svg>