<?xml version="1.0"?>
<svg xmlns:rdf="http://www.w3.org/1999/02/22-rdf-syntax-ns#" xmlns="http://www.w3.org/2000/svg" xmlns:cc="http://web.resource.org/cc/" xmlns:xlink="http://www.w3.org/1999/xlink" xmlns:dc="http://purl.org/dc/elements/1.1/" xmlns:svg="http://www.w3.org/2000/svg" id="Layer_1" xml:space="preserve" overflow="visible" viewBox="0 0 276.318 160.123" version="1.1" enable-background="new 0 0 276.318 160.123">
	<path clip-rule="evenodd" d="m198.33 129.58c-25.423 3.657-52.225 7.534-80.99 4.999-8.949 12.43-12.249 28.197-28.997 23.997-12.695-3.184-6.833-14.337-11.999-27.997-2.117-5.597-10.978-8.782-16.998-13.998-9.137-7.917-13.975-17.384-22.998-19.997-9.935-2.878-20.184 0.82-29.996-2-0.17-10.143-12.77-31.266-2-36.995 7.453-3.965 10.854 6.194 17.998 5.999 8.978-0.245 20.153-18.955 26.997-22.997 7.793-4.603 17.542-4.249 17.998-12.999 0.534-10.309-15.544-11.02-14.001-21.001 1.685-10.898 24.391-5.857 30.996-2 9.808 5.727 9.494 13.983 20.998 15.998 16.505 2.891 41.039-4.952 59.993-5 30.968-0.078 69.697 4.414 86.989 23.997 6.609 7.486 4.314 10.983 10.998 21.997 3.292 5.424 13.149 8.196 12.999 17.998-0.132 8.541-8.725 8.324-12.999 14.998-4.904 7.659-6.402 24.527-10.998 35.995-4.812 12.007-10.156 25.05-18.998 27.997-22.1 7.37-23.24-13.02-34.99-28.99zm67.99-46.999h4.999c-0.826-2.826 1.409-2.591 1-5-1.695-1.637-2.483-4.182-5.999-3.999v8.999z" fill-rule="evenodd"/>
<metadata><rdf:RDF><cc:Work><dc:format>image/svg+xml</dc:format><dc:type rdf:resource="http://purl.org/dc/dcmitype/StillImage"/><cc:license rdf:resource="http://creativecommons.org/licenses/publicdomain/"/><dc:publisher><cc:Agent rdf:about="http://openclipart.org/"><dc:title>Openclipart</dc:title></cc:Agent></dc:publisher><dc:title>piggie sihouette</dc:title><dc:date>2006-12-23T19:42:37</dc:date><dc:description>a pig silhouette from a U.S. patent drawing</dc:description><dc:source>http://openclipart.org/detail/2232/piggie-sihouette-by-johnny_automatic</dc:source><dc:creator><cc:Agent><dc:title>johnny_automatic</dc:title></cc:Agent></dc:creator><dc:subject><rdf:Bag><rdf:li>animal</rdf:li><rdf:li>clip art</rdf:li><rdf:li>clipart</rdf:li><rdf:li>externalsource</rdf:li><rdf:li>image</rdf:li><rdf:li>media</rdf:li><rdf:li>pig</rdf:li><rdf:li>png</rdf:li><rdf:li>public domain</rdf:li><rdf:li>silhouette</rdf:li><rdf:li>svg</rdf:li><rdf:li>uspto</rdf:li></rdf:Bag></dc:subject></cc:Work><cc:License rdf:about="http://creativecommons.org/licenses/publicdomain/"><cc:permits rdf:resource="http://creativecommons.org/ns#Reproduction"/><cc:permits rdf:resource="http://creativecommons.org/ns#Distribution"/><cc:permits rdf:resource="http://creativecommons.org/ns#DerivativeWorks"/></cc:License></rdf:RDF></metadata></svg>
