<?xml version="1.0"?>
<svg xmlns:rdf="http://www.w3.org/1999/02/22-rdf-syntax-ns#" xmlns="http://www.w3.org/2000/svg" xmlns:cc="http://web.resource.org/cc/" xmlns:dc="http://purl.org/dc/elements/1.1/" xmlns:svg="http://www.w3.org/2000/svg" id="svg2" viewBox="0 0 744.09 1052.4">
  <g id="layer1">
    <path id="path2170" d="m363.23 984.94c-136.44-43.63-211.88-178.3-155.74-314.35 27.98-59.67-52.96-14.8-80.6-14.24 12.29-22.97 15.52-32.92 9.24-42.3s-33.36-7.91-56.638-15.68c16.432-14.52 53.798-12.87 56.948-36.12 3.05-22.44-40.006-13.03-58.16-29.5 16.047-8.74 57.94-4.57 65.84-30.77 6.01-19.92-32.32-39.87-32.92-54.15 49.58 24.46 85.45 21.97 118.36-10.39 1.48 0.09 3.76 4.47 9.51 27.63 5.76 23.16 16.04 39.29 41.26 28.95 25.21-10.34 31.66-15.5-0.74-46.37-67.21-69.8-50.3-154.82 13.78-232.22 12.63-12.48-14.5-27.72-26.9-35.35s-11.5-10.08-10.44-14.8c28.12-19.9 41.97-27.27 25.85-67.767 13.37-6.676 28.85-1.388 41.85-10.136 16.09-7.656 4.06-35.225 12.64-44.137 15.33 1.41 22.24 19.366 38.23 18.038 19.89-3.768 40.86-36.362 54.7-27.622-1.43 9.437-4.58 19.297 2.5 20.819 11.72 2.52 39.69-14.674 43.57-9.997 3.19 3.842-21.36 27.286 7.46 27.167s55.63 30.755 62.7 61.515c12.96 65.42 56.34 105.48 107.36 145.71 22.31 14.88 20.73 27.21 6.86 38.3-13.87 11.08-36.86 11.27-56.72-2.81-19.86-14.09-29.22-15.52-75.2-19.44s-59.57-8.52-71.08-16.95-19.9-34.04-19.97-40.69c-0.08-6.64-11.28 13.01-19.44 29.9-8.17 16.9-3.29 32.18 62.84 70.36 66.02 34.35 120.53 77.53 123.14 154.13-0.05 52.18-27.13 106.03-136.32 145.95-123.93 45.31-179.82 146.99-90.46 249.66 61.07 57.18 150.99 25.57 152.25-58.26-3.27-54.83-58.59-78.35-94.98-26.71-18.05 25.59-28.34 22.74-22.71-5.2 6.99-34.68 50.55-59.84 93.35-57.61 73.42 3.83 97.55 73.17 77.81 134.4-31.21 96.85-127.22 131.1-219.03 111.04z"/>
  </g>
  <metadata>
    <rdf:RDF>
      <cc:Work>
        <dc:format>image/svg+xml</dc:format>
        <dc:type rdf:resource="http://purl.org/dc/dcmitype/StillImage"/>
        <cc:license rdf:resource="http://creativecommons.org/licenses/publicdomain/"/>
        <dc:publisher>
          <cc:Agent rdf:about="http://openclipart.org/">
            <dc:title>Openclipart</dc:title>
          </cc:Agent>
        </dc:publisher>
        <dc:title>seahorse silhouette</dc:title>
        <dc:date>2006-11-28T05:39:56</dc:date>
        <dc:description>seahorse silhouette</dc:description>
        <dc:source>http://openclipart.org/detail/1662/seahorse-silhouette-by-molumen</dc:source>
        <dc:creator>
          <cc:Agent>
            <dc:title>molumen</dc:title>
          </cc:Agent>
        </dc:creator>
        <dc:subject>
          <rdf:Bag>
            <rdf:li>animal</rdf:li>
            <rdf:li>clip art</rdf:li>
            <rdf:li>clipart</rdf:li>
            <rdf:li>horse</rdf:li>
            <rdf:li>image</rdf:li>
            <rdf:li>line art</rdf:li>
            <rdf:li>marine</rdf:li>
            <rdf:li>media</rdf:li>
            <rdf:li>png</rdf:li>
            <rdf:li>public domain</rdf:li>
            <rdf:li>sea</rdf:li>
            <rdf:li>sea creature</rdf:li>
            <rdf:li>seahorse</rdf:li>
            <rdf:li>silhouette</rdf:li>
            <rdf:li>svg</rdf:li>
            <rdf:li>underwater</rdf:li>
          </rdf:Bag>
        </dc:subject>
      </cc:Work>
      <cc:License rdf:about="http://creativecommons.org/licenses/publicdomain/">
        <cc:permits rdf:resource="http://creativecommons.org/ns#Reproduction"/>
        <cc:permits rdf:resource="http://creativecommons.org/ns#Distribution"/>
        <cc:permits rdf:resource="http://creativecommons.org/ns#DerivativeWorks"/>
      </cc:License>
    </rdf:RDF>
  </metadata>
</svg>
